<svg version="1.2" xmlns="http://www.w3.org/2000/svg" viewBox="0 0 512 512" width="512" height="512">
	<style>
		.s0 { fill: #24c19a }
	</style>
	<g>
		<path class="s0" d="m236.72 39.2c-44.46 9.52-81.18 30.31-113.92 64.38-21.46 22.56-32.52 38.93-43.8 64.81-8.19 19.03-17.04 50.44-17.04 60.4 0 4.86-0.88 5.08-17.69 5.08-19.03 0-28.98 3.32-33.18 10.84-5.31 10.18-0.23 26.11 9.95 30.75 4.2 1.99 30.31 2.66 94.24 2.66 73.44 0 89.59-0.67 94.68-3.32 4.42-2.21 9.51-9.29 16.81-23.45l10.4-20.35 17.69 34.06c37.39 71.9 42.48 80.31 49.11 83.62 4.87 2.22 8.19 2.44 14.38 0.45 8.85-2.66 14.6-11.06 34.29-50.66l10.18-20.35h16.81c19.24 0 29.86-3.99 33.84-12.39 4.43-9.74 2.88-18.36-3.98-25.44l-6.41-6.42h-29.87c-36.05 0-37.16 0.67-51.1 28.32l-9.51 19.02-27.21-53.09c-15.04-28.98-30.08-55.52-33.4-59.06-6.86-6.86-19.91-8.19-27.43-2.88-2.44 1.77-11.95 17.7-21.02 35.4l-16.59 32.29h-40.48-40.71l1.55-9.51c2.66-16.15 11.95-41.37 21.46-57.74 11.06-19.02 43.8-52.2 61.94-63.04 38.49-22.57 85.61-30.09 129.63-21.02 60.39 12.39 110.83 57.74 131.18 118.13 5.98 17.92 7.3 25 7.97 48.67 1.1 30.53-1.77 49.77-11.06 73-16.6 40.92-50.44 76.32-90.7 95.34-46.01 21.46-105.08 21.24-150.87-0.44-18.8-8.85-46.01-29.2-58.18-43.8-10.84-12.83-29.2-41.81-29.2-46.01 0-2.22-5.75-2.88-23.23-2.88-17.03 0-23.22 0.66-23.22 2.66 0 6.41 15.48 37.6 26.32 53.31 30.53 44.02 76.76 76.76 127.64 90.25 22.56 5.98 67.47 7.97 91.14 4.21 94.02-15.05 170.34-92.91 184.27-188.26 3.1-21.68 1.33-60.61-3.54-81.62-7.96-32.74-30.3-74.11-53.97-100.21-31.19-33.85-81.19-60.62-126.32-67.92-22.12-3.32-60.39-2.43-81.85 2.21z"/>
	</g>
</svg>
